<mxfile host="app.diagrams.net" agent="Mozilla/5.0 (Windows NT 10.0; Win64; x64) AppleWebKit/537.36 (KHTML, like Gecko) Chrome/136.0.0.0 Safari/537.36 Edg/136.0.0.0" version="27.1.3">
  <diagram name="Page-1" id="kClDVkn1rwwxWksCV2Wo">
    <mxGraphModel dx="1805" dy="1711" grid="1" gridSize="10" guides="1" tooltips="1" connect="1" arrows="1" fold="1" page="1" pageScale="1" pageWidth="827" pageHeight="1169" math="0" shadow="0">
      <root>
        <mxCell id="0" />
        <mxCell id="1" parent="0" />
        <mxCell id="C3qPjn6Pq11D4Rv8hFkP-7" value="Post Car" style="edgeStyle=orthogonalEdgeStyle;rounded=0;orthogonalLoop=1;jettySize=auto;html=1;entryX=0.25;entryY=0;entryDx=0;entryDy=0;" edge="1" parent="1" source="C3qPjn6Pq11D4Rv8hFkP-1" target="C3qPjn6Pq11D4Rv8hFkP-6">
          <mxGeometry x="0.2378" y="10" relative="1" as="geometry">
            <mxPoint as="offset" />
          </mxGeometry>
        </mxCell>
        <mxCell id="C3qPjn6Pq11D4Rv8hFkP-11" value="List Cars" style="edgeStyle=orthogonalEdgeStyle;rounded=0;orthogonalLoop=1;jettySize=auto;html=1;" edge="1" parent="1" source="C3qPjn6Pq11D4Rv8hFkP-1" target="C3qPjn6Pq11D4Rv8hFkP-8">
          <mxGeometry relative="1" as="geometry" />
        </mxCell>
        <mxCell id="C3qPjn6Pq11D4Rv8hFkP-24" value="Save Image" style="edgeStyle=orthogonalEdgeStyle;rounded=0;orthogonalLoop=1;jettySize=auto;html=1;entryX=0.199;entryY=1.009;entryDx=0;entryDy=0;exitX=0;exitY=0.5;exitDx=0;exitDy=0;entryPerimeter=0;" edge="1" parent="1" source="C3qPjn6Pq11D4Rv8hFkP-6" target="C3qPjn6Pq11D4Rv8hFkP-23">
          <mxGeometry relative="1" as="geometry" />
        </mxCell>
        <mxCell id="C3qPjn6Pq11D4Rv8hFkP-1" value="Website (s)" style="rounded=0;whiteSpace=wrap;html=1;" vertex="1" parent="1">
          <mxGeometry x="270" y="210" width="120" height="60" as="geometry" />
        </mxCell>
        <mxCell id="C3qPjn6Pq11D4Rv8hFkP-4" style="edgeStyle=orthogonalEdgeStyle;rounded=0;orthogonalLoop=1;jettySize=auto;html=1;entryX=0.624;entryY=0.014;entryDx=0;entryDy=0;entryPerimeter=0;" edge="1" parent="1" source="C3qPjn6Pq11D4Rv8hFkP-2" target="C3qPjn6Pq11D4Rv8hFkP-39">
          <mxGeometry relative="1" as="geometry" />
        </mxCell>
        <mxCell id="C3qPjn6Pq11D4Rv8hFkP-42" style="edgeStyle=orthogonalEdgeStyle;rounded=0;orthogonalLoop=1;jettySize=auto;html=1;" edge="1" parent="1" source="C3qPjn6Pq11D4Rv8hFkP-2" target="C3qPjn6Pq11D4Rv8hFkP-41">
          <mxGeometry relative="1" as="geometry" />
        </mxCell>
        <mxCell id="C3qPjn6Pq11D4Rv8hFkP-2" value="Seller" style="shape=umlActor;verticalLabelPosition=bottom;verticalAlign=top;html=1;outlineConnect=0;" vertex="1" parent="1">
          <mxGeometry x="170" y="30" width="30" height="60" as="geometry" />
        </mxCell>
        <mxCell id="C3qPjn6Pq11D4Rv8hFkP-3" value="Buyer" style="shape=umlActor;verticalLabelPosition=bottom;verticalAlign=top;html=1;outlineConnect=0;" vertex="1" parent="1">
          <mxGeometry x="399" y="30" width="30" height="60" as="geometry" />
        </mxCell>
        <mxCell id="C3qPjn6Pq11D4Rv8hFkP-5" style="edgeStyle=orthogonalEdgeStyle;rounded=0;orthogonalLoop=1;jettySize=auto;html=1;" edge="1" parent="1" source="C3qPjn6Pq11D4Rv8hFkP-3" target="C3qPjn6Pq11D4Rv8hFkP-39">
          <mxGeometry relative="1" as="geometry" />
        </mxCell>
        <mxCell id="C3qPjn6Pq11D4Rv8hFkP-10" value="Save Car" style="edgeStyle=orthogonalEdgeStyle;rounded=0;orthogonalLoop=1;jettySize=auto;html=1;entryX=0.263;entryY=-0.02;entryDx=0;entryDy=0;entryPerimeter=0;" edge="1" parent="1" source="C3qPjn6Pq11D4Rv8hFkP-6" target="C3qPjn6Pq11D4Rv8hFkP-9">
          <mxGeometry relative="1" as="geometry">
            <mxPoint x="200" y="600" as="targetPoint" />
          </mxGeometry>
        </mxCell>
        <mxCell id="C3qPjn6Pq11D4Rv8hFkP-6" value="Seller API" style="rounded=0;whiteSpace=wrap;html=1;" vertex="1" parent="1">
          <mxGeometry y="480" width="120" height="60" as="geometry" />
        </mxCell>
        <mxCell id="C3qPjn6Pq11D4Rv8hFkP-33" value="notify bid" style="edgeStyle=orthogonalEdgeStyle;rounded=0;orthogonalLoop=1;jettySize=auto;html=1;entryX=0.5;entryY=1;entryDx=0;entryDy=0;entryPerimeter=0;" edge="1" parent="1" source="C3qPjn6Pq11D4Rv8hFkP-8" target="C3qPjn6Pq11D4Rv8hFkP-34">
          <mxGeometry relative="1" as="geometry">
            <mxPoint x="570" y="410" as="targetPoint" />
          </mxGeometry>
        </mxCell>
        <mxCell id="C3qPjn6Pq11D4Rv8hFkP-44" style="edgeStyle=orthogonalEdgeStyle;rounded=0;orthogonalLoop=1;jettySize=auto;html=1;" edge="1" parent="1" source="C3qPjn6Pq11D4Rv8hFkP-8" target="C3qPjn6Pq11D4Rv8hFkP-43">
          <mxGeometry relative="1" as="geometry" />
        </mxCell>
        <mxCell id="C3qPjn6Pq11D4Rv8hFkP-8" value="Buyer API" style="rounded=0;whiteSpace=wrap;html=1;" vertex="1" parent="1">
          <mxGeometry x="240" y="380" width="120" height="60" as="geometry" />
        </mxCell>
        <mxCell id="C3qPjn6Pq11D4Rv8hFkP-9" value="Cars Mongodb" style="shape=cylinder3;whiteSpace=wrap;html=1;boundedLbl=1;backgroundOutline=1;size=15;" vertex="1" parent="1">
          <mxGeometry x="170" y="760" width="60" height="80" as="geometry" />
        </mxCell>
        <mxCell id="C3qPjn6Pq11D4Rv8hFkP-12" value="Get Cars" style="edgeStyle=orthogonalEdgeStyle;rounded=0;orthogonalLoop=1;jettySize=auto;html=1;entryX=0.771;entryY=0.041;entryDx=0;entryDy=0;entryPerimeter=0;exitX=0.295;exitY=0.985;exitDx=0;exitDy=0;exitPerimeter=0;" edge="1" parent="1" source="C3qPjn6Pq11D4Rv8hFkP-8" target="C3qPjn6Pq11D4Rv8hFkP-9">
          <mxGeometry relative="1" as="geometry" />
        </mxCell>
        <mxCell id="C3qPjn6Pq11D4Rv8hFkP-13" value="Bid" style="edgeStyle=orthogonalEdgeStyle;rounded=0;orthogonalLoop=1;jettySize=auto;html=1;entryX=0.865;entryY=0.009;entryDx=0;entryDy=0;exitX=0.825;exitY=1.032;exitDx=0;exitDy=0;exitPerimeter=0;entryPerimeter=0;" edge="1" parent="1" source="C3qPjn6Pq11D4Rv8hFkP-1" target="C3qPjn6Pq11D4Rv8hFkP-8">
          <mxGeometry relative="1" as="geometry" />
        </mxCell>
        <mxCell id="C3qPjn6Pq11D4Rv8hFkP-16" value="Save Bid" style="edgeStyle=orthogonalEdgeStyle;rounded=0;orthogonalLoop=1;jettySize=auto;html=1;exitX=1.02;exitY=0.687;exitDx=0;exitDy=0;exitPerimeter=0;" edge="1" parent="1" source="C3qPjn6Pq11D4Rv8hFkP-8" target="C3qPjn6Pq11D4Rv8hFkP-15">
          <mxGeometry relative="1" as="geometry" />
        </mxCell>
        <mxCell id="C3qPjn6Pq11D4Rv8hFkP-29" style="edgeStyle=orthogonalEdgeStyle;rounded=0;orthogonalLoop=1;jettySize=auto;html=1;exitX=0.5;exitY=0;exitDx=0;exitDy=0;" edge="1" parent="1" source="C3qPjn6Pq11D4Rv8hFkP-37" target="C3qPjn6Pq11D4Rv8hFkP-30">
          <mxGeometry relative="1" as="geometry">
            <mxPoint x="690" y="180" as="targetPoint" />
          </mxGeometry>
        </mxCell>
        <mxCell id="C3qPjn6Pq11D4Rv8hFkP-14" value="Top Bid Calculation Service" style="rounded=0;whiteSpace=wrap;html=1;" vertex="1" parent="1">
          <mxGeometry x="620" y="260" width="120" height="60" as="geometry" />
        </mxCell>
        <mxCell id="C3qPjn6Pq11D4Rv8hFkP-15" value="Auction SQL" style="shape=cylinder3;whiteSpace=wrap;html=1;boundedLbl=1;backgroundOutline=1;size=15;" vertex="1" parent="1">
          <mxGeometry x="490" y="600" width="60" height="80" as="geometry" />
        </mxCell>
        <mxCell id="C3qPjn6Pq11D4Rv8hFkP-17" value="List Bids" style="edgeStyle=orthogonalEdgeStyle;rounded=0;orthogonalLoop=1;jettySize=auto;html=1;entryX=0.932;entryY=0.119;entryDx=0;entryDy=0;entryPerimeter=0;exitX=0.75;exitY=1;exitDx=0;exitDy=0;" edge="1" parent="1" source="C3qPjn6Pq11D4Rv8hFkP-14" target="C3qPjn6Pq11D4Rv8hFkP-15">
          <mxGeometry relative="1" as="geometry" />
        </mxCell>
        <mxCell id="C3qPjn6Pq11D4Rv8hFkP-18" value="Car Sold" style="edgeStyle=orthogonalEdgeStyle;rounded=0;orthogonalLoop=1;jettySize=auto;html=1;exitX=0;exitY=0.5;exitDx=0;exitDy=0;" edge="1" parent="1" source="C3qPjn6Pq11D4Rv8hFkP-37" target="C3qPjn6Pq11D4Rv8hFkP-21">
          <mxGeometry relative="1" as="geometry" />
        </mxCell>
        <mxCell id="C3qPjn6Pq11D4Rv8hFkP-19" value="Save Purchase" style="edgeStyle=orthogonalEdgeStyle;rounded=0;orthogonalLoop=1;jettySize=auto;html=1;" edge="1" parent="1" source="C3qPjn6Pq11D4Rv8hFkP-8" target="C3qPjn6Pq11D4Rv8hFkP-45">
          <mxGeometry relative="1" as="geometry" />
        </mxCell>
        <mxCell id="C3qPjn6Pq11D4Rv8hFkP-22" style="edgeStyle=orthogonalEdgeStyle;rounded=0;orthogonalLoop=1;jettySize=auto;html=1;entryX=0.997;entryY=0.399;entryDx=0;entryDy=0;entryPerimeter=0;" edge="1" parent="1" source="C3qPjn6Pq11D4Rv8hFkP-21" target="C3qPjn6Pq11D4Rv8hFkP-8">
          <mxGeometry relative="1" as="geometry">
            <mxPoint x="370" y="420" as="targetPoint" />
          </mxGeometry>
        </mxCell>
        <mxCell id="C3qPjn6Pq11D4Rv8hFkP-21" value="" style="shape=cylinder3;whiteSpace=wrap;html=1;boundedLbl=1;backgroundOutline=1;size=15;rotation=90;" vertex="1" parent="1">
          <mxGeometry x="460" y="270" width="60" height="80" as="geometry" />
        </mxCell>
        <mxCell id="C3qPjn6Pq11D4Rv8hFkP-23" value="Blob Storage" style="rounded=0;whiteSpace=wrap;html=1;" vertex="1" parent="1">
          <mxGeometry x="-60" y="150" width="120" height="60" as="geometry" />
        </mxCell>
        <mxCell id="C3qPjn6Pq11D4Rv8hFkP-25" value="Save Image" style="edgeStyle=orthogonalEdgeStyle;rounded=0;orthogonalLoop=1;jettySize=auto;html=1;entryX=0.75;entryY=0;entryDx=0;entryDy=0;" edge="1" parent="1" source="C3qPjn6Pq11D4Rv8hFkP-1" target="C3qPjn6Pq11D4Rv8hFkP-6">
          <mxGeometry x="0.4789" y="-5" relative="1" as="geometry">
            <mxPoint as="offset" />
          </mxGeometry>
        </mxCell>
        <mxCell id="C3qPjn6Pq11D4Rv8hFkP-26" value="Save Image" style="edgeStyle=orthogonalEdgeStyle;rounded=0;orthogonalLoop=1;jettySize=auto;html=1;entryX=0;entryY=0;entryDx=0;entryDy=52.5;entryPerimeter=0;" edge="1" parent="1" source="C3qPjn6Pq11D4Rv8hFkP-6" target="C3qPjn6Pq11D4Rv8hFkP-9">
          <mxGeometry relative="1" as="geometry" />
        </mxCell>
        <mxCell id="C3qPjn6Pq11D4Rv8hFkP-28" value="Notify Aution Result" style="edgeStyle=orthogonalEdgeStyle;rounded=0;orthogonalLoop=1;jettySize=auto;html=1;exitX=0.5;exitY=0;exitDx=0;exitDy=0;" edge="1" parent="1" source="C3qPjn6Pq11D4Rv8hFkP-27">
          <mxGeometry relative="1" as="geometry">
            <mxPoint x="430" y="70" as="targetPoint" />
          </mxGeometry>
        </mxCell>
        <mxCell id="C3qPjn6Pq11D4Rv8hFkP-27" value="Email Service" style="rounded=0;whiteSpace=wrap;html=1;" vertex="1" parent="1">
          <mxGeometry x="530" y="20" width="120" height="60" as="geometry" />
        </mxCell>
        <mxCell id="C3qPjn6Pq11D4Rv8hFkP-30" value="" style="shape=cylinder3;whiteSpace=wrap;html=1;boundedLbl=1;backgroundOutline=1;size=15;rotation=90;" vertex="1" parent="1">
          <mxGeometry x="767" y="50" width="60" height="80" as="geometry" />
        </mxCell>
        <mxCell id="C3qPjn6Pq11D4Rv8hFkP-31" style="edgeStyle=orthogonalEdgeStyle;rounded=0;orthogonalLoop=1;jettySize=auto;html=1;entryX=1.029;entryY=0.353;entryDx=0;entryDy=0;entryPerimeter=0;" edge="1" parent="1" source="C3qPjn6Pq11D4Rv8hFkP-30" target="C3qPjn6Pq11D4Rv8hFkP-27">
          <mxGeometry relative="1" as="geometry" />
        </mxCell>
        <mxCell id="C3qPjn6Pq11D4Rv8hFkP-34" value="" style="shape=cylinder3;whiteSpace=wrap;html=1;boundedLbl=1;backgroundOutline=1;size=15;rotation=90;" vertex="1" parent="1">
          <mxGeometry x="560" y="350" width="60" height="80" as="geometry" />
        </mxCell>
        <mxCell id="C3qPjn6Pq11D4Rv8hFkP-35" style="edgeStyle=orthogonalEdgeStyle;rounded=0;orthogonalLoop=1;jettySize=auto;html=1;entryX=0.451;entryY=1.032;entryDx=0;entryDy=0;entryPerimeter=0;" edge="1" parent="1" source="C3qPjn6Pq11D4Rv8hFkP-34" target="C3qPjn6Pq11D4Rv8hFkP-14">
          <mxGeometry relative="1" as="geometry" />
        </mxCell>
        <mxCell id="C3qPjn6Pq11D4Rv8hFkP-36" value="Save Latest Top Bid" style="edgeStyle=orthogonalEdgeStyle;rounded=0;orthogonalLoop=1;jettySize=auto;html=1;entryX=1;entryY=0;entryDx=0;entryDy=52.5;entryPerimeter=0;exitX=1;exitY=0.5;exitDx=0;exitDy=0;" edge="1" parent="1" source="C3qPjn6Pq11D4Rv8hFkP-14" target="C3qPjn6Pq11D4Rv8hFkP-15">
          <mxGeometry relative="1" as="geometry" />
        </mxCell>
        <mxCell id="C3qPjn6Pq11D4Rv8hFkP-37" value="Auction Service&lt;div&gt;Triggered by time&lt;/div&gt;" style="rounded=0;whiteSpace=wrap;html=1;" vertex="1" parent="1">
          <mxGeometry x="820" y="180" width="120" height="60" as="geometry" />
        </mxCell>
        <mxCell id="C3qPjn6Pq11D4Rv8hFkP-38" value="Get Top Bids" style="edgeStyle=orthogonalEdgeStyle;rounded=0;orthogonalLoop=1;jettySize=auto;html=1;entryX=0.656;entryY=0.989;entryDx=0;entryDy=0;entryPerimeter=0;exitX=0.5;exitY=1;exitDx=0;exitDy=0;" edge="1" parent="1" source="C3qPjn6Pq11D4Rv8hFkP-37" target="C3qPjn6Pq11D4Rv8hFkP-15">
          <mxGeometry relative="1" as="geometry" />
        </mxCell>
        <mxCell id="C3qPjn6Pq11D4Rv8hFkP-40" style="edgeStyle=orthogonalEdgeStyle;rounded=0;orthogonalLoop=1;jettySize=auto;html=1;entryX=0.5;entryY=0;entryDx=0;entryDy=0;" edge="1" parent="1" source="C3qPjn6Pq11D4Rv8hFkP-39" target="C3qPjn6Pq11D4Rv8hFkP-1">
          <mxGeometry relative="1" as="geometry" />
        </mxCell>
        <mxCell id="C3qPjn6Pq11D4Rv8hFkP-39" value="LB" style="rounded=0;whiteSpace=wrap;html=1;" vertex="1" parent="1">
          <mxGeometry x="270" y="120" width="120" height="60" as="geometry" />
        </mxCell>
        <mxCell id="C3qPjn6Pq11D4Rv8hFkP-41" value="CDN" style="rounded=0;whiteSpace=wrap;html=1;" vertex="1" parent="1">
          <mxGeometry x="30" y="-50" width="120" height="60" as="geometry" />
        </mxCell>
        <mxCell id="C3qPjn6Pq11D4Rv8hFkP-43" value="Cache Layer" style="rounded=0;whiteSpace=wrap;html=1;" vertex="1" parent="1">
          <mxGeometry x="370" y="510" width="120" height="60" as="geometry" />
        </mxCell>
        <mxCell id="C3qPjn6Pq11D4Rv8hFkP-45" value="Sql Db" style="shape=cylinder3;whiteSpace=wrap;html=1;boundedLbl=1;backgroundOutline=1;size=15;" vertex="1" parent="1">
          <mxGeometry x="350" y="810" width="60" height="80" as="geometry" />
        </mxCell>
      </root>
    </mxGraphModel>
  </diagram>
</mxfile>
